<svg width="8" height="8" viewBox="0 0 16 16" fill="none" xmlns="http://www.w3.org/2000/svg">
<path fill-rule="evenodd" clip-rule="evenodd" d="M1.88038 1.88038C3.08437 0.676394 4.71733 0 6.42003 0C7.26312 0 8.09795 0.166059 8.87687 0.488696C9.65578 0.811332 10.3635 1.28423 10.9597 1.88038C11.5558 2.47654 12.0287 3.18427 12.3514 3.96319C12.674 4.7421 12.8401 5.57694 12.8401 6.42003C12.8401 7.26312 12.674 8.09795 12.3514 8.87687C12.1789 9.29317 11.9636 9.68914 11.7094 10.0586L16 14.3492L14.3492 16L10.0586 11.7094C9.68914 11.9636 9.29317 12.1789 8.87687 12.3514C8.09795 12.674 7.26312 12.8401 6.42003 12.8401C4.71733 12.8401 3.08437 12.1637 1.88038 10.9597C0.676394 9.75568 0 8.12272 0 6.42003C0 4.71733 0.676394 3.08437 1.88038 1.88038ZM6.42003 2.33456C5.33649 2.33456 4.29734 2.76499 3.53116 3.53116C2.76499 4.29734 2.33456 5.33649 2.33456 6.42003C2.33456 7.50356 2.76499 8.54272 3.53116 9.30889C4.29734 10.0751 5.33649 10.5055 6.42003 10.5055C6.95654 10.5055 7.4878 10.3998 7.98347 10.1945C8.47914 9.9892 8.92952 9.68826 9.30889 9.30889C9.68826 8.92952 9.9892 8.47914 10.1945 7.98347C10.3998 7.4878 10.5055 6.95654 10.5055 6.42003C10.5055 5.88351 10.3998 5.35226 10.1945 4.85659C9.9892 4.36091 9.68826 3.91053 9.30889 3.53116C8.92952 3.15179 8.47914 2.85086 7.98347 2.64554C7.4878 2.44023 6.95654 2.33456 6.42003 2.33456Z" fill="white"/>
</svg>
