<svg width="11" height="10" viewBox="0 0 11 10" fill="none" xmlns="http://www.w3.org/2000/svg">
<path d="M9.75499 3.79278L7.02755 3.39639L5.80831 0.924613C5.77501 0.856938 5.72023 0.802152 5.65255 0.768852C5.48282 0.685063 5.27657 0.754887 5.19171 0.924613L3.97247 3.39639L1.24503 3.79278C1.16984 3.80352 1.10109 3.83897 1.04845 3.89268C0.984815 3.95808 0.949749 4.04608 0.950958 4.13732C0.952167 4.22857 0.98955 4.3156 1.0549 4.3793L3.02823 6.30323L2.56202 9.01992C2.55109 9.08312 2.55808 9.14812 2.58221 9.20754C2.60634 9.26696 2.64663 9.31844 2.69852 9.35613C2.75042 9.39382 2.81183 9.41621 2.8758 9.42077C2.93978 9.42534 3.00375 9.41188 3.06046 9.38194L5.50001 8.09932L7.93956 9.38194C8.00616 9.41739 8.08351 9.4292 8.15763 9.41631C8.34454 9.38408 8.47023 9.20684 8.438 9.01992L7.97179 6.30323L9.94513 4.3793C9.99884 4.32666 10.0343 4.25791 10.045 4.18272C10.074 3.99473 9.94298 3.82071 9.75499 3.79278Z" fill="#FBB03B"/>
</svg>
