<svg width="49" height="40" viewBox="0 0 49 40" fill="none" xmlns="http://www.w3.org/2000/svg">
<path d="M24.1309 15.3824L13.7504 25.8147L5.71224 17.8021C5.39784 17.4881 5.14823 17.1151 4.97769 16.7044C4.80714 16.2938 4.71899 15.8535 4.71827 15.4087C4.71754 14.9639 4.80426 14.5233 4.97348 14.1121C5.14269 13.7008 5.39108 13.327 5.70447 13.012L11.3148 7.36106C11.9472 6.72446 12.8061 6.36557 13.7025 6.36329C14.599 6.36102 15.4597 6.71555 16.0953 7.34894L24.1309 15.3824Z" fill="#FBB03B"/>
<path d="M36.8595 7.44058L42.4822 13.0745C43.1162 13.7097 43.4723 14.5713 43.4723 15.4696C43.4723 16.3679 43.1162 17.2294 42.4822 17.8646L34.4662 25.8967L24.0623 15.472L32.0784 7.43996C32.3923 7.12539 32.765 6.87587 33.1752 6.70565C33.5854 6.53543 34.0251 6.44785 34.4691 6.4479C34.913 6.44796 35.3527 6.53566 35.7628 6.70598C36.173 6.87631 36.5456 7.12592 36.8595 7.44058Z" fill="#FFDB84"/>
<path d="M21.9105 34.0163L13.7332 25.8227L24.1396 15.3955L34.546 25.8227L26.3686 34.0163C26.076 34.3098 25.7285 34.5426 25.346 34.7014C24.9635 34.8602 24.5536 34.9419 24.1396 34.9419C23.7255 34.9419 23.3156 34.8602 22.9331 34.7014C22.5506 34.5426 22.2031 34.3098 21.9105 34.0163Z" fill="#FFEC00"/>
</svg>
